<?xml version="1.0" standalone="no"?>
<!DOCTYPE svg PUBLIC "-//W3C//DTD SVG 20010904//EN"
 "http://www.w3.org/TR/2001/REC-SVG-20010904/DTD/svg10.dtd">
<svg version="1.0" xmlns="http://www.w3.org/2000/svg"
 width="790.000000pt" height="790.000000pt" viewBox="0 0 790.000000 790.000000"
 preserveAspectRatio="xMidYMid meet">
<metadata>
Created by potrace 1.14, written by Peter Selinger 2001-2017
</metadata>
<g transform="translate(0.000000,790.000000) scale(0.100000,-0.100000)"
fill="#000000" stroke="none">
<path d="M1462 7002 c-33 -3 -34 -5 -28 -38 4 -19 9 -49 11 -67 2 -17 7 -52
10 -77 4 -25 8 -56 10 -70 3 -30 14 -98 19 -126 2 -11 7 -47 10 -80 4 -32 8
-66 11 -74 4 -17 16 -98 20 -145 2 -16 6 -43 8 -60 3 -16 9 -52 13 -80 3 -27
8 -59 10 -70 2 -11 6 -40 9 -65 3 -25 7 -60 10 -78 3 -17 8 -49 11 -69 2 -20
6 -48 9 -62 2 -14 9 -62 15 -106 6 -44 12 -91 14 -105 13 -74 26 -171 25 -177
-1 -5 -1 -10 1 -13 3 -9 14 -82 36 -235 2 -16 9 -61 15 -100 5 -38 12 -86 14
-105 8 -67 16 -125 19 -135 2 -7 556 -10 1637 -9 899 1 1636 2 1639 3 3 0 16
11 30 24 14 12 41 34 62 49 20 15 42 33 50 40 7 8 33 29 58 47 25 19 50 39 55
45 6 6 30 27 55 46 25 19 47 37 50 40 3 3 50 41 105 85 55 44 111 90 125 102
23 20 155 127 435 352 66 53 131 106 145 118 14 12 89 73 167 136 79 63 150
122 159 131 8 9 18 16 22 16 4 0 24 15 44 33 20 17 63 53 95 79 247 200 412
333 433 351 14 12 70 57 125 101 55 43 107 86 116 95 25 24 59 51 65 51 2 0
15 9 27 21 12 11 48 41 80 66 31 25 57 49 57 52 0 4 -75 7 -167 8 -800 5
-1486 14 -1493 18 -5 3 -11 1 -15 -5 -4 -6 -11 -8 -16 -4 -6 3 -225 8 -487 10
-262 2 -715 6 -1007 9 -291 2 -786 7 -1100 10 -313 3 -799 8 -1080 11 -280 3
-517 5 -525 4 -20 0 -95 1 -145 3 -22 1 -55 1 -73 -1z"/>
<path d="M7620 6654 c-52 -42 -111 -88 -130 -104 -19 -16 -75 -60 -125 -99
-49 -40 -99 -80 -110 -89 -11 -10 -38 -31 -60 -48 -22 -16 -44 -34 -50 -40 -5
-6 -55 -46 -110 -90 -130 -103 -120 -95 -196 -156 -36 -29 -83 -66 -104 -83
-21 -16 -85 -68 -144 -115 -58 -47 -180 -144 -271 -217 -91 -73 -176 -141
-190 -152 -14 -12 -29 -21 -33 -21 -5 0 -5 -4 -2 -10 3 -5 1 -10 -5 -10 -6 0
-37 -21 -68 -47 -32 -27 -73 -59 -91 -73 -19 -14 -50 -39 -70 -56 -20 -17
-115 -93 -211 -170 -96 -76 -177 -141 -180 -144 -3 -3 -78 -63 -167 -134
l-161 -128 -21 -92 c-21 -92 -58 -260 -67 -306 -3 -13 -12 -56 -20 -95 -9 -38
-17 -79 -20 -90 -2 -11 -6 -32 -10 -47 -3 -15 -5 -30 -5 -33 0 -2 -5 -19 -10
-37 -5 -18 -12 -49 -15 -68 -3 -19 -8 -38 -10 -41 -2 -4 -6 -24 -9 -45 -4 -22
-8 -47 -11 -56 -3 -10 -7 -30 -10 -45 -3 -16 -7 -36 -10 -45 -6 -21 -15 -64
-19 -93 -2 -11 -4 -20 -5 -20 -1 0 -3 -11 -6 -25 -2 -14 -8 -43 -14 -65 -10
-42 -78 -353 -86 -395 -3 -14 -7 -32 -9 -40 -2 -8 -7 -30 -10 -47 -3 -18 -12
-63 -21 -100 -9 -38 -18 -81 -21 -98 -2 -16 -8 -43 -13 -60 -5 -16 -12 -46
-15 -65 -3 -19 -19 -93 -36 -165 -16 -71 -32 -143 -34 -160 -3 -16 -7 -39 -10
-50 -2 -11 -9 -38 -14 -60 -5 -22 -12 -51 -15 -65 -2 -14 -14 -70 -26 -125
-12 -55 -23 -107 -24 -115 -2 -8 -6 -28 -9 -45 -9 -37 -11 -46 -37 -165 -12
-52 -23 -106 -26 -120 -3 -14 -7 -32 -9 -40 -3 -8 -7 -31 -10 -51 -5 -32 -3
-37 17 -42 23 -5 78 -25 133 -48 17 -7 35 -13 40 -15 12 -3 392 -142 420 -154
11 -4 46 -17 78 -29 31 -12 83 -30 115 -42 31 -12 66 -25 77 -29 11 -4 47 -18
80 -30 33 -12 69 -26 80 -30 22 -9 134 -49 150 -54 6 -2 24 -8 40 -15 17 -6
55 -21 85 -32 30 -12 69 -26 85 -32 17 -7 32 -12 35 -13 3 0 18 -6 33 -12 16
-7 33 -12 38 -12 5 0 17 -4 27 -10 43 -25 486 -180 492 -173 5 4 10 24 13 43
3 19 10 55 15 80 13 54 22 96 27 130 2 14 9 48 15 75 7 28 13 59 16 70 2 11
21 106 43 210 22 105 42 204 45 220 3 17 10 48 15 70 5 22 12 55 16 73 3 18
12 65 21 105 8 39 17 82 20 95 5 25 13 67 19 97 2 11 6 31 9 45 3 14 8 39 12
55 3 17 7 37 8 45 1 9 5 21 10 28 4 6 5 12 2 12 -2 0 2 27 10 60 7 32 16 74
19 92 4 18 11 53 16 78 6 25 12 56 14 70 3 14 9 43 14 66 6 23 13 56 15 75 3
19 10 52 15 74 6 22 13 56 16 75 5 31 14 68 31 145 3 11 7 31 9 45 2 14 7 36
10 50 3 14 8 39 11 55 3 17 11 58 19 93 8 34 17 77 20 95 4 17 10 50 15 72 5
22 11 55 15 73 3 18 12 60 19 92 8 33 12 60 9 60 -3 0 -1 6 4 13 5 6 9 19 8
27 -1 8 2 22 7 31 4 9 10 36 13 60 3 24 10 59 15 79 5 19 12 49 14 65 7 35 14
70 21 105 3 14 8 36 11 50 3 14 7 36 10 50 2 14 7 36 10 50 8 35 13 60 19 95
3 17 8 37 10 45 2 8 7 29 10 45 2 17 7 41 11 55 3 14 7 34 9 45 2 11 6 31 9
45 3 14 8 34 10 45 2 11 9 42 15 68 6 27 9 53 6 58 -4 5 -2 9 3 9 5 0 9 6 9
13 1 18 14 90 19 109 3 9 7 25 9 35 2 10 10 52 19 93 8 41 17 86 20 100 3 14
8 36 11 50 3 14 8 39 11 55 3 17 7 35 8 40 2 6 6 28 11 50 4 22 10 49 12 60 2
11 6 31 9 45 3 14 10 45 15 70 6 25 13 56 15 70 4 22 13 67 20 95 1 6 5 28 9
50 6 35 11 59 29 136 3 9 7 32 10 50 3 19 15 77 27 129 11 52 22 106 24 120 2
14 13 68 24 120 21 91 35 161 47 225 8 43 12 60 14 60 1 0 3 9 5 20 3 21 11
63 20 105 3 14 8 39 11 55 10 54 13 69 27 128 8 31 12 57 8 57 -3 0 -49 -34
-101 -76z"/>
<path d="M3824 4610 l-811 -5 -59 -45 c-32 -25 -61 -48 -64 -51 -3 -3 -36 -29
-74 -58 -37 -28 -75 -58 -83 -66 -8 -8 -18 -15 -22 -15 -4 0 -16 -8 -27 -18
-10 -10 -50 -42 -89 -72 -38 -30 -130 -101 -204 -159 -165 -129 -224 -175
-321 -248 -41 -31 -77 -60 -80 -63 -3 -3 -34 -28 -70 -55 -36 -27 -81 -62
-100 -77 -49 -40 -50 -41 -108 -83 -29 -20 -52 -41 -52 -46 0 -5 -4 -9 -10 -9
-5 0 -18 -7 -27 -15 -20 -16 -320 -249 -448 -348 -44 -33 -85 -66 -92 -71 -19
-17 -35 -29 -78 -61 -35 -27 -174 -135 -215 -169 -9 -6 -42 -32 -75 -56 -33
-25 -73 -57 -90 -72 -16 -16 -33 -28 -37 -28 -4 0 -13 -6 -20 -13 -10 -10
-116 -92 -203 -159 -5 -4 -41 -33 -79 -63 -38 -30 -71 -55 -75 -55 -3 -1 -25
-18 -49 -38 -42 -37 -42 -39 -25 -59 10 -12 34 -40 53 -63 19 -23 40 -47 45
-54 9 -10 90 -108 121 -146 7 -8 28 -33 48 -55 19 -22 97 -114 172 -205 75
-91 146 -176 158 -190 12 -14 57 -68 100 -120 44 -52 82 -97 85 -100 4 -3 45
-52 93 -110 47 -58 94 -115 104 -127 11 -12 26 -30 34 -40 8 -10 51 -61 95
-113 44 -52 83 -99 87 -105 5 -5 20 -24 35 -41 45 -51 97 -116 106 -130 10
-17 24 -18 42 -1 18 15 37 30 150 114 99 74 97 72 141 108 18 14 37 25 43 25
6 0 11 4 11 10 0 5 15 20 34 32 40 26 518 388 526 398 3 3 26 21 52 38 25 18
52 38 60 44 7 7 76 60 153 118 77 57 145 108 150 112 6 5 35 27 65 51 30 23
57 45 58 49 2 5 8 8 14 8 5 0 15 6 23 12 16 16 41 35 120 94 33 24 73 54 89
67 16 12 73 54 125 94 53 39 103 77 111 85 8 7 31 24 50 37 19 14 42 31 50 38
8 8 56 44 105 80 50 37 92 69 95 72 3 4 32 26 65 50 33 25 62 48 63 53 2 4 9
8 15 8 7 0 23 10 37 23 14 12 70 56 125 97 55 41 102 77 105 80 3 3 21 17 40
30 19 13 38 28 41 33 4 5 16 14 27 20 26 15 250 185 256 195 2 4 16 61 31 127
15 66 30 127 33 135 2 8 6 22 7 30 4 27 34 155 66 290 12 47 23 96 25 109 3
12 12 53 20 90 9 36 18 77 21 91 8 42 11 55 13 55 1 0 4 11 6 25 3 13 16 72
30 130 14 58 26 113 27 123 1 9 5 17 10 17 4 0 6 4 3 8 -5 8 3 48 27 142 4 14
9 36 11 50 3 14 7 34 10 45 24 94 32 135 27 137 -14 3 -294 3 -1057 -2z"/>
</g>
</svg>
