<?xml version="1.0" standalone="no"?>
<!DOCTYPE svg PUBLIC "-//W3C//DTD SVG 20010904//EN"
 "http://www.w3.org/TR/2001/REC-SVG-20010904/DTD/svg10.dtd">
<svg version="1.0" xmlns="http://www.w3.org/2000/svg"
 width="500.000000pt" height="500.000000pt" viewBox="0 0 500.000000 500.000000"
 preserveAspectRatio="xMidYMid meet">
<metadata>
Created by potrace 1.14, written by Peter Selinger 2001-2017
</metadata>
<g transform="translate(0.000000,500.000000) scale(0.100000,-0.100000)"
fill="#000000" stroke="none">
<path d="M0 2500 l0 -2500 1240 0 c682 0 1240 3 1240 8 0 35 -93 435 -200 862
-139 550 -239 918 -320 1174 -27 88 -49 160 -47 162 1 1 135 82 297 181 l295
178 295 -172 c162 -96 298 -177 302 -181 4 -4 -15 -80 -42 -167 -28 -88 -82
-272 -120 -410 -73 -259 -410 -1593 -410 -1620 0 -13 134 -15 1235 -15 l1235
0 0 2500 0 2500 -1242 0 -1243 -1 36 -22 c19 -12 560 -346 1202 -742 702 -433
1170 -727 1173 -738 3 -11 2 -23 -3 -27 -4 -5 -98 -20 -208 -35 -459 -60 -722
-118 -868 -192 l-48 -24 -645 401 c-355 221 -650 400 -657 397 -7 -3 -298
-183 -647 -400 l-634 -395 -46 23 c-142 72 -408 130 -865 190 -109 15 -203 29
-207 31 -4 3 -7 16 -6 28 2 20 187 138 1167 742 641 396 1181 729 1200 741
l36 22 -1247 1 -1248 0 0 -2500z m3045 925 c286 -180 526 -332 533 -338 9 -7
-3 -26 -51 -77 -35 -37 -89 -105 -120 -152 -56 -84 -189 -347 -202 -401 -4
-15 -11 -29 -15 -32 -4 -3 -159 85 -345 196 -185 110 -342 199 -348 196 -7 -3
-157 -93 -335 -201 -178 -108 -327 -194 -332 -191 -4 3 -11 17 -15 32 -13 54
-146 317 -202 401 -31 48 -88 119 -126 159 l-69 72 49 30 c26 17 271 169 543
339 272 170 500 305 505 302 6 -4 244 -155 530 -335z"/>
</g>
</svg>
