<?xml version="1.0" standalone="no"?>
<!DOCTYPE svg PUBLIC "-//W3C//DTD SVG 20010904//EN"
 "http://www.w3.org/TR/2001/REC-SVG-20010904/DTD/svg10.dtd">
<svg version="1.0" xmlns="http://www.w3.org/2000/svg"
 width="500.000000pt" height="500.000000pt" viewBox="0 0 500.000000 500.000000"
 preserveAspectRatio="xMidYMid meet">

<g transform="translate(0.000000,500.000000) scale(0.100000,-0.100000)"
fill="#000000" stroke="none">
<path d="M0 2500 l0 -2500 1240 0 c682 0 1240 3 1240 8 0 57 -237 1032 -370
1521 -34 123 -60 225 -58 226 16 14 448 305 453 305 4 0 110 -70 236 -156 172
-117 228 -160 225 -173 -47 -152 -436 -1684 -436 -1716 0 -13 151 -15 1235
-15 l1235 0 0 2500 0 2500 -1242 0 -1243 -1 36 -22 c19 -12 560 -346 1202
-742 702 -433 1170 -727 1173 -738 3 -11 2 -23 -3 -27 -4 -5 -98 -20 -208 -35
-218 -28 -366 -51 -433 -66 -40 -9 -90 7 -907 273 l-865 281 -870 -282 c-479
-155 -874 -280 -878 -277 -12 7 -248 44 -457 71 -109 15 -203 29 -207 31 -4 3
-7 16 -6 28 2 20 187 138 1167 742 641 396 1181 729 1200 741 l36 22 -1247 1
-1248 0 0 -2500z m2970 689 l449 -310 -36 -57 c-45 -69 -159 -308 -199 -414
-19 -53 -34 -78 -45 -78 -9 0 -155 32 -325 70 l-309 71 -305 -71 c-168 -38
-312 -70 -320 -70 -10 0 -26 28 -44 78 -40 107 -154 345 -200 415 -20 33 -36
63 -34 67 6 17 893 619 906 615 8 -3 215 -145 462 -316z"/>
</g>
</svg>
