<svg version="1.1" id="Layer_1" xmlns="http://www.w3.org/2000/svg" xmlns:xlink="http://www.w3.org/1999/xlink" x="0px" y="0px"
	 width="100%" viewBox="0 0 500 500" enable-background="new 0 0 500 500" xml:space="preserve">
<path fill="#18181b" opacity="0.000000" stroke="none" 
	d="
M249.000000,501.000000 
	C166.369446,501.000000 83.738884,501.000000 1.054161,501.000000 
	C1.054161,334.442261 1.054161,167.884491 1.054161,1.000000 
	C82.688393,1.000000 164.377213,1.000000 246.528015,1.367074 
	C246.685516,2.291950 246.525406,3.083631 246.055603,3.373605 
	C231.559906,12.320773 217.021515,21.198721 202.515503,30.129221 
	C181.504700,43.064320 160.511307,56.027714 139.515396,68.986984 
	C120.597397,80.663704 101.687164,92.353012 82.771370,104.033302 
	C59.846245,118.189316 36.977261,132.438080 13.932798,146.397125 
	C10.257039,148.623688 9.274959,150.985458 10.353928,154.550842 
	C27.214554,157.050125 43.793575,159.774704 60.448383,161.907425 
	C80.347626,164.455643 99.495842,169.464828 117.980431,177.277512 
	C120.130310,178.186172 123.700264,177.805649 125.739388,176.575989 
	C141.164215,167.274414 156.355927,157.587036 171.649323,148.066574 
	C196.996490,132.287430 222.395370,116.590874 247.682526,100.716270 
	C250.469162,98.966888 252.767303,99.246307 255.188721,100.735527 
	C267.492706,108.302681 279.786987,115.886421 292.028717,123.553741 
	C320.779541,141.561142 349.483673,159.643204 378.281952,177.574249 
	C379.497742,178.331268 381.784668,178.514084 383.039520,177.890930 
	C402.993103,167.982269 424.703583,164.674835 446.292786,161.081604 
	C460.770172,158.672028 475.376678,157.043457 489.908142,154.945694 
	C491.315125,154.742569 492.599854,153.692368 493.941345,153.035385 
	C493.101379,151.614532 492.599030,149.698074 491.364166,148.856796 
	C485.327515,144.744324 479.140228,140.846359 472.924988,137.003876 
	C445.450348,120.018036 417.960358,103.056877 390.451141,86.127068 
	C370.278076,73.712090 350.054169,61.379738 329.875885,48.973213 
	C312.592194,38.346409 295.259460,27.795765 278.112061,16.952658 
	C270.206573,11.953659 262.691895,6.336740 255.000000,1.000002 
	C336.964142,1.000000 418.928253,1.000000 500.946198,1.000000 
	C500.946198,167.557892 500.946198,334.115784 500.946198,501.000000 
	C418.978271,501.000000 336.956116,501.000000 254.467056,500.578766 
	C254.492111,497.444458 254.837418,494.695099 255.498657,492.023956 
	C262.306488,464.522888 269.033569,437.000824 276.047424,409.552124 
	C282.977936,382.429565 290.028473,355.334503 297.388031,328.325928 
	C301.338837,313.827087 306.077911,299.543793 310.393677,285.142975 
	C311.234589,282.337006 312.144287,279.755432 308.390320,277.639679 
	C291.724487,268.246765 275.009796,258.899994 258.811279,248.741653 
	C253.508499,245.416183 250.123840,245.039261 244.782043,248.437698 
	C227.425568,259.479950 209.647507,269.859497 191.955521,280.540161 
	C194.987213,290.081482 198.208817,299.385040 200.895065,308.840729 
	C207.393127,331.714050 213.986542,354.569611 219.906723,377.595551 
	C228.050201,409.268829 235.701416,441.070160 243.359100,472.865875 
	C245.596970,482.157806 247.139023,491.617310 249.000000,501.000000 
M153.399124,184.939117 
	C149.958939,187.059036 146.518768,189.178955 142.570801,191.611786 
	C161.605927,210.927551 173.452499,234.342117 183.192078,259.241241 
	C184.144196,258.812317 184.739227,258.612396 185.265411,258.297394 
	C206.005630,245.883148 226.784485,233.532120 247.423111,220.951035 
	C250.325043,219.182037 252.338745,218.910919 255.324738,220.722031 
	C275.438202,232.921448 295.700989,244.874390 315.839966,257.032196 
	C318.857910,258.854126 320.067810,258.688721 321.537292,255.137772 
	C330.411560,233.693207 339.960449,212.598267 357.260376,196.248138 
	C359.685913,193.955780 359.606995,192.601395 356.475739,190.695755 
	C344.414612,183.355331 332.570587,175.658829 320.625854,168.126404 
	C298.117523,153.932465 275.602722,139.748703 253.047256,125.629951 
	C252.304962,125.165298 250.842010,125.034233 250.136002,125.454659 
	C242.333130,130.101196 234.607849,134.878342 226.872726,139.638290 
	C202.579819,154.587402 178.291718,169.544312 153.399124,184.939117 
z"/>
<path fill="#00FFFF" opacity="1.000000" stroke="none" 
	d="
M254.555832,1.000002 
	C262.691895,6.336740 270.206573,11.953659 278.112061,16.952658 
	C295.259460,27.795765 312.592194,38.346409 329.875885,48.973213 
	C350.054169,61.379738 370.278076,73.712090 390.451141,86.127068 
	C417.960358,103.056877 445.450348,120.018036 472.924988,137.003876 
	C479.140228,140.846359 485.327515,144.744324 491.364166,148.856796 
	C492.599030,149.698074 493.101379,151.614532 493.941345,153.035385 
	C492.599854,153.692368 491.315125,154.742569 489.908142,154.945694 
	C475.376678,157.043457 460.770172,158.672028 446.292786,161.081604 
	C424.703583,164.674835 402.993103,167.982269 383.039520,177.890930 
	C381.784668,178.514084 379.497742,178.331268 378.281952,177.574249 
	C349.483673,159.643204 320.779541,141.561142 292.028717,123.553741 
	C279.786987,115.886421 267.492706,108.302681 255.188721,100.735527 
	C252.767303,99.246307 250.469162,98.966888 247.682526,100.716270 
	C222.395370,116.590874 196.996490,132.287430 171.649323,148.066574 
	C156.355927,157.587036 141.164215,167.274414 125.739388,176.575989 
	C123.700264,177.805649 120.130310,178.186172 117.980431,177.277512 
	C99.495842,169.464828 80.347626,164.455643 60.448383,161.907425 
	C43.793575,159.774704 27.214554,157.050125 10.353928,154.550842 
	C9.274959,150.985458 10.257039,148.623688 13.932798,146.397125 
	C36.977261,132.438080 59.846245,118.189316 82.771370,104.033302 
	C101.687164,92.353012 120.597397,80.663704 139.515396,68.986984 
	C160.511307,56.027714 181.504700,43.064320 202.515503,30.129221 
	C217.021515,21.198721 231.559906,12.320773 246.055603,3.373605 
	C246.525406,3.083631 246.685516,2.291950 246.994995,1.367074 
	C249.370560,1.000000 251.741104,1.000000 254.555832,1.000002 
z"/>
<path fill="#00FFFF" opacity="1.000000" stroke="none" 
	d="
M249.416656,501.000000 
	C247.139023,491.617310 245.596970,482.157806 243.359100,472.865875 
	C235.701416,441.070160 228.050201,409.268829 219.906723,377.595551 
	C213.986542,354.569611 207.393127,331.714050 200.895065,308.840729 
	C198.208817,299.385040 194.987213,290.081482 191.955521,280.540161 
	C209.647507,269.859497 227.425568,259.479950 244.782043,248.437698 
	C250.123840,245.039261 253.508499,245.416183 258.811279,248.741653 
	C275.009796,258.899994 291.724487,268.246765 308.390320,277.639679 
	C312.144287,279.755432 311.234589,282.337006 310.393677,285.142975 
	C306.077911,299.543793 301.338837,313.827087 297.388031,328.325928 
	C290.028473,355.334503 282.977936,382.429565 276.047424,409.552124 
	C269.033569,437.000824 262.306488,464.522888 255.498657,492.023956 
	C254.837418,494.695099 254.492111,497.444458 254.000076,500.578766 
	C252.611115,501.000000 251.222214,501.000000 249.416656,501.000000 
z"/>
<path fill="#00FFFF" opacity="1.000000" stroke="none" 
	d="
M153.700439,184.718658 
	C178.291718,169.544312 202.579819,154.587402 226.872726,139.638290 
	C234.607849,134.878342 242.333130,130.101196 250.136002,125.454659 
	C250.842010,125.034233 252.304962,125.165298 253.047256,125.629951 
	C275.602722,139.748703 298.117523,153.932465 320.625854,168.126404 
	C332.570587,175.658829 344.414612,183.355331 356.475739,190.695755 
	C359.606995,192.601395 359.685913,193.955780 357.260376,196.248138 
	C339.960449,212.598267 330.411560,233.693207 321.537292,255.137772 
	C320.067810,258.688721 318.857910,258.854126 315.839966,257.032196 
	C295.700989,244.874390 275.438202,232.921448 255.324738,220.722031 
	C252.338745,218.910919 250.325043,219.182037 247.423111,220.951035 
	C226.784485,233.532120 206.005630,245.883148 185.265411,258.297394 
	C184.739227,258.612396 184.144196,258.812317 183.192078,259.241241 
	C173.452499,234.342117 161.605927,210.927551 142.570801,191.611786 
	C146.518768,189.178955 149.958939,187.059036 153.700439,184.718658 
z"/>
</svg>