<?xml version="1.0" standalone="no"?>
<!DOCTYPE svg PUBLIC "-//W3C//DTD SVG 20010904//EN"
 "http://www.w3.org/TR/2001/REC-SVG-20010904/DTD/svg10.dtd">
<svg version="1.0" xmlns="http://www.w3.org/2000/svg"
 width="500.000000pt" height="500.000000pt" viewBox="0 0 500.000000 500.000000"
 preserveAspectRatio="xMidYMid meet">

<g transform="translate(0.000000,500.000000) scale(0.100000,-0.100000)"
fill="#000000" stroke="none">
<path d="M0 2500 l0 -2500 1240 0 c682 0 1240 3 1240 8 0 61 -267 1152 -395
1612 -220 790 -382 1170 -598 1397 l-68 72 41 26 c23 14 267 167 543 338 l502
313 480 -303 c264 -167 509 -321 543 -343 l64 -40 -64 -69 c-211 -223 -374
-606 -593 -1391 -70 -250 -405 -1579 -405 -1605 0 -13 134 -15 1235 -15 l1235
0 0 2500 0 2500 -1242 0 -1243 -1 36 -22 c19 -12 560 -346 1202 -742 702 -433
1170 -727 1173 -738 3 -11 2 -23 -3 -27 -4 -5 -98 -20 -208 -35 -459 -60 -722
-118 -868 -192 l-48 -24 -645 401 c-355 221 -650 400 -657 397 -7 -3 -298
-183 -647 -400 l-634 -395 -46 23 c-142 72 -408 130 -865 190 -109 15 -203 29
-207 31 -4 3 -7 16 -6 28 2 20 187 138 1167 742 641 396 1181 729 1200 741
l36 22 -1247 1 -1248 0 0 -2500z"/>
</g>
</svg>
