<svg version="1.1" viewBox="0.0 0.0 790.3464566929134 777.5223097112861" fill="none" stroke="none" stroke-linecap="square" stroke-miterlimit="10" xmlns:xlink="http://www.w3.org/1999/xlink" xmlns="http://www.w3.org/2000/svg"><clipPath id="p.0"><path d="m0 0l790.34644 0l0 777.52234l-790.34644 0l0 -777.52234z" clip-rule="nonzero"/></clipPath><g clip-path="url(#p.0)"><path fill="#000000" fill-opacity="0.0" d="m0 0l790.34644 0l0 777.52234l-790.34644 0z" fill-rule="evenodd"/><g filter="url(#shadowFilter-p.1)"><use xlink:href="#p.1" transform="matrix(1.0 0.0 0.0 1.0 12.608171916010493 9.85058346456693)"/></g><defs><filter id="shadowFilter-p.1" filterUnits="userSpaceOnUse"><feGaussianBlur in="SourceAlpha" stdDeviation="18.0" result="blur"/><feComponentTransfer in="blur" color-interpolation-filters="sRGB"><feFuncR type="linear" slope="0" intercept="0.0"/><feFuncG type="linear" slope="0" intercept="1.0"/><feFuncB type="linear" slope="0" intercept="1.0"/><feFuncA type="linear" slope="0.5" intercept="0"/></feComponentTransfer></filter></defs><g id="p.1"><path fill="#00ffff" d="m143.61154 83.37139l613.61414 5.7007904l-256.46454 208.021l-326.7533 0z" fill-rule="evenodd"/><path stroke="#00ffff" stroke-width="1.0" stroke-linejoin="round" stroke-linecap="butt" d="m143.61154 83.37139l613.61414 5.7007904l-256.46454 208.021l-326.7533 0z" fill-rule="evenodd"/></g><g filter="url(#shadowFilter-p.2)"><use xlink:href="#p.2" transform="matrix(1.0 0.0 0.0 1.0 -12.992080839895008 0.4536934383202826)"/></g><defs><filter id="shadowFilter-p.2" filterUnits="userSpaceOnUse"><feGaussianBlur in="SourceAlpha" stdDeviation="15.5" result="blur"/><feComponentTransfer in="blur" color-interpolation-filters="sRGB"><feFuncR type="linear" slope="0" intercept="0.0"/><feFuncG type="linear" slope="0" intercept="1.0"/><feFuncB type="linear" slope="0" intercept="1.0"/><feFuncA type="linear" slope="0.5" intercept="0"/></feComponentTransfer></filter></defs><g id="p.2"><path fill="#00ffff" d="m647.97107 711.24554l124.26886 -600.9528l-257.58765 206.65121l-69.14099 319.36865z" fill-rule="evenodd"/><path stroke="#00ffff" stroke-width="1.0" stroke-linejoin="round" stroke-linecap="butt" d="m647.97107 711.24554l124.26886 -600.9528l-257.58765 206.65121l-69.14099 319.36865z" fill-rule="evenodd"/></g><g filter="url(#shadowFilter-p.3)"><use xlink:href="#p.3" transform="matrix(1.0 0.0 0.0 1.0 -10.880043569553806 8.810485301837215)"/></g><defs><filter id="shadowFilter-p.3" filterUnits="userSpaceOnUse"><feGaussianBlur in="SourceAlpha" stdDeviation="12.0" result="blur"/><feComponentTransfer in="blur" color-interpolation-filters="sRGB"><feFuncR type="linear" slope="0" intercept="0.0"/><feFuncG type="linear" slope="0" intercept="1.0"/><feFuncB type="linear" slope="0" intercept="1.0"/><feFuncA type="linear" slope="0.69" intercept="0"/></feComponentTransfer></filter></defs><g id="p.3"><path fill="#00ffff" d="m456.12073 322.74933l-153.87927 0l-289.70865 225.1181l136.77953 163.37799l302.06036 -228.91864l37.044617 -160.52756z" fill-rule="evenodd"/><path stroke="#00ffff" stroke-width="1.0" stroke-linejoin="round" stroke-linecap="butt" d="m456.12073 322.74933l-153.87927 0l-289.70865 225.1181l136.77953 163.37799l302.06036 -228.91864l37.044617 -160.52756z" fill-rule="evenodd"/></g></g></svg>